#N canvas 25 160 499 341 10;
#X obj 42 265 dac~;
#X obj 51 201 mtof;
#X obj 51 124 random 50;
#X obj 35 159 + 40;
#X obj 45 235 osc~;
#X obj 58 46 tgl 15 0 empty empty empty 17 7 0 10 -262144 -1 -1 1 1
;
#X floatatom 94 40 5 0 0 0 - - -, f 5;
#X obj 322 275 dac~;
#X obj 331 211 mtof;
#X obj 331 134 random 50;
#X obj 315 169 + 40;
#X obj 325 245 osc~;
#X obj 338 56 tgl 15 0 empty empty empty 17 7 0 10 -262144 -1 -1 1
1;
#X floatatom 374 50 5 0 0 0 - - -, f 5;
#X obj 189 260 dac~;
#X obj 200 78 metro 400;
#X obj 198 196 mtof;
#X obj 198 119 random 50;
#X obj 182 154 + 40;
#X obj 192 230 osc~;
#X obj 205 41 tgl 15 0 empty empty empty 17 7 0 10 -262144 -1 -1 1
1;
#X floatatom 241 35 5 0 0 0 - - -, f 5;
#X obj 53 83 metro 100;
#X obj 333 93 metro 300;
#X text 16 9 turn on DSP in Pd window and start the metro objects above
;
#X connect 1 0 4 0;
#X connect 1 0 4 1;
#X connect 2 0 3 0;
#X connect 3 0 1 0;
#X connect 4 0 0 0;
#X connect 4 0 0 1;
#X connect 5 0 22 0;
#X connect 6 0 22 1;
#X connect 8 0 11 0;
#X connect 8 0 11 1;
#X connect 9 0 10 0;
#X connect 10 0 8 0;
#X connect 11 0 7 0;
#X connect 11 0 7 1;
#X connect 12 0 23 0;
#X connect 13 0 23 1;
#X connect 15 0 17 0;
#X connect 16 0 19 0;
#X connect 16 0 19 1;
#X connect 17 0 18 0;
#X connect 18 0 16 0;
#X connect 19 0 14 0;
#X connect 19 0 14 1;
#X connect 20 0 15 0;
#X connect 21 0 15 1;
#X connect 22 0 2 0;
#X connect 23 0 9 0;
